<?xml version="1.0" encoding="UTF-8"?>
<svg id="Layer_1" data-name="Layer 1" xmlns="http://www.w3.org/2000/svg" viewBox="0 0 90.13 160">
    <defs>
        <style>
            .cls-1 {
            fill: #ffe1ff;
            }

            .cls-2 {
            fill: none;
            stroke: #000;
            stroke-linecap: round;
            stroke-miterlimit: 10;
            }
        </style>
    </defs>
    <g>
        <path class="cls-1" d="M8.94,159.5c-4.17,0-7.56-3.39-7.56-7.56V44.31C1.38,20.61,19.92,1.37,43.58.5h0c.63,0,1.14.51,1.14,1.12v41.08c0,1.16.95,2.11,2.11,2.11h41.12c.61,0,1.11.5,1.11,1.12v106.01c0,4.17-3.39,7.56-7.56,7.56H8.94Z"/>
        <path d="M43.61,1c.33,0,.61.28.61.62v41.08c0,1.44,1.17,2.61,2.61,2.61h41.12c.34,0,.61.27.61.62v106.01c0,3.89-3.17,7.06-7.06,7.06H8.94c-3.89,0-7.06-3.17-7.06-7.06V44.31c0-11.3,4.32-21.99,12.16-30.11C21.87,6.1,32.36,1.41,43.59,1h.02M43.61,0s-.04,0-.05,0C19.84.87.88,20.37.88,44.31v107.63c0,4.45,3.61,8.06,8.06,8.06h72.56c4.45,0,8.06-3.61,8.06-8.06V45.93c0-.9-.72-1.62-1.61-1.62h-41.12c-.89,0-1.61-.72-1.61-1.61V1.62c0-.88-.72-1.62-1.61-1.62h0Z"/>
    </g>
    <g>
        <path class="cls-1" d="M65.7,44.79v-21.57h21.07c.28,0,.5.22.5.5v21.07h-21.57Z"/>
        <path d="M86.78,23.72v20.57h-20.57v-20.57h20.57M86.78,22.72h-21.57v22.57h22.57v-21.57c0-.55-.45-1-1-1h0Z"/>
    </g>
    <g>
        <path class="cls-1" d="M44.72,23.77V2.2l20.46.06c.62,0,1.11.5,1.11,1.11v20.46l-21.57-.05Z"/>
        <path d="M45.22,2.7l19.96.05c.34,0,.61.27.61.61v19.96l-20.57-.05V2.7M44.22,1.7v22.57l22.57.06V3.37c0-.89-.72-1.61-1.61-1.61l-20.96-.06h0Z"/>
    </g>
    <g>
        <rect class="cls-1" x="44.72" y="23.22" width="21.57" height="21.57"/>
        <path d="M65.8,23.72v20.57h-20.57v-20.57h20.57M66.8,22.72h-22.57v22.57h22.57v-22.57h0Z"/>
    </g>
    <g>
        <line class="cls-2" x1="50.06" y1="28.14" x2="50.06" y2="41.48"/>
        <line class="cls-2" x1="55.51" y1="28.14" x2="55.51" y2="41.48"/>
        <line class="cls-2" x1="60.96" y1="28.14" x2="60.96" y2="41.48"/>
    </g>
    <g>
        <line class="cls-2" x1="50.06" y1="6.34" x2="50.06" y2="19.68"/>
        <line class="cls-2" x1="55.51" y1="6.34" x2="55.51" y2="19.68"/>
        <line class="cls-2" x1="60.96" y1="6.34" x2="60.96" y2="19.68"/>
    </g>
    <g>
        <line class="cls-2" x1="71.05" y1="27.33" x2="71.05" y2="40.67"/>
        <line class="cls-2" x1="76.49" y1="27.33" x2="76.49" y2="40.67"/>
        <line class="cls-2" x1="81.94" y1="27.33" x2="81.94" y2="40.67"/>
    </g>
</svg>
